<?xml version="1.0" encoding="UTF-8" standalone="no"?>
<!-- Created with Inkscape (http://www.inkscape.org/) -->

<svg
   width="199.55821mm"
   height="70.074478mm"
   viewBox="0 0 199.55821 70.074478"
   version="1.1"
   id="svg1"
   xml:space="preserve"
   inkscape:export-filename="snnax.png"
   inkscape:export-xdpi="241.919"
   inkscape:export-ydpi="241.919"
   inkscape:version="1.3 (0e150ed6c4, 2023-07-21)"
   sodipodi:docname="snnax.svg"
   xmlns:inkscape="http://www.inkscape.org/namespaces/inkscape"
   xmlns:sodipodi="http://sodipodi.sourceforge.net/DTD/sodipodi-0.dtd"
   xmlns="http://www.w3.org/2000/svg"
   xmlns:svg="http://www.w3.org/2000/svg"><sodipodi:namedview
     id="namedview1"
     pagecolor="#ffffff"
     bordercolor="#666666"
     borderopacity="1.0"
     inkscape:showpageshadow="2"
     inkscape:pageopacity="0.0"
     inkscape:pagecheckerboard="0"
     inkscape:deskcolor="#d1d1d1"
     inkscape:document-units="mm"
     inkscape:zoom="1.153393"
     inkscape:cx="275.27478"
     inkscape:cy="290.4474"
     inkscape:window-width="1920"
     inkscape:window-height="1139"
     inkscape:window-x="0"
     inkscape:window-y="0"
     inkscape:window-maximized="1"
     inkscape:current-layer="layer1" /><defs
     id="defs1"><inkscape:perspective
       sodipodi:type="inkscape:persp3d"
       inkscape:vp_x="53.423725 : -46.156287 : 1"
       inkscape:vp_y="0 : 999.99998 : 0"
       inkscape:vp_z="154.38276 : -54.154407 : 1"
       inkscape:persp3d-origin="129.4049 : -104.00316 : 1"
       id="perspective1" /><inkscape:perspective
       sodipodi:type="inkscape:persp3d"
       inkscape:vp_x="93.774609 : -69.327237 : 1"
       inkscape:vp_y="0 : 264.58332 : 0"
       inkscape:vp_z="120.48669 : -71.443407 : 1"
       inkscape:persp3d-origin="113.87796 : -84.632556 : 1"
       id="perspective1-4" /><inkscape:perspective
       sodipodi:type="inkscape:persp3d"
       inkscape:vp_x="93.774609 : -73.031377 : 1"
       inkscape:vp_y="0 : 264.58332 : 0"
       inkscape:vp_z="120.48669 : -75.147547 : 1"
       inkscape:persp3d-origin="113.87796 : -88.336696 : 1"
       id="perspective1-6" /><inkscape:perspective
       sodipodi:type="inkscape:persp3d"
       inkscape:vp_x="105.24453 : -80.290066 : 1"
       inkscape:vp_y="0 : 70.004337 : 0"
       inkscape:vp_z="112.3121 : -80.849966 : 1"
       inkscape:persp3d-origin="110.56354 : -84.339596 : 1"
       id="perspective1-6-2" /><inkscape:perspective
       sodipodi:type="inkscape:persp3d"
       inkscape:vp_x="103.65703 : -72.695417 : 1"
       inkscape:vp_y="0 : 70.004337 : 0"
       inkscape:vp_z="110.7246 : -73.255327 : 1"
       inkscape:persp3d-origin="108.97604 : -76.744957 : 1"
       id="perspective1-4-4" /><style
       id="style1">.cls-1{fill:#5e97f6;}.cls-1,.cls-2,.cls-3,.cls-4,.cls-5,.cls-6,.cls-7,.cls-8,.cls-9{stroke:#dce0df;stroke-linejoin:round;}.cls-2{fill:#2a56c6;}.cls-3{fill:#00796b;}.cls-4{fill:#3367d6;}.cls-5{fill:#26a69a;}.cls-6{fill:#9c27b0;}.cls-7{fill:#6a1b9a;}.cls-8{fill:#00695c;}.cls-9{fill:#ea80fc;}</style></defs><g
     inkscape:label="Layer 1"
     inkscape:groupmode="layer"
     id="layer1"
     transform="translate(-4.2685227,-119.82907)"><g
       id="g45"
       transform="translate(10.583334,-0.22939565)"><polygon
         class="cls-3"
         points="150.5,217.01 175.5,260.31 200.5,217.01 175.5,173.71 "
         id="polygon12-5-4-8-0-4"
         style="fill:#00796b;stroke:#dce0df;stroke-linejoin:round"
         transform="matrix(0.26458333,0,0,0.26458333,-12.633676,86.185641)" /><polygon
         class="cls-3"
         points="200.5,217.01 175.5,173.71 150.5,217.01 175.5,260.31 "
         id="polygon12-5-8-4-5-2-6-0"
         style="fill:#00796b;stroke:#dce0df;stroke-linejoin:round"
         transform="matrix(0.26458333,0,0,0.26458333,-32.517556,120.84606)" /><polygon
         class="cls-3"
         points="200.5,217.01 175.5,173.71 150.5,217.01 175.5,260.31 "
         id="polygon12-5-5-1-9-8-2-4"
         style="fill:#00695c;fill-opacity:1;stroke:#dce0df;stroke-linejoin:round"
         transform="matrix(0.26458333,0,0,0.26458333,-19.288389,97.723242)" /><polygon
         class="cls-1"
         points="175.5,173.71 125.5,173.71 100.5,217.01 150.5,217.01 "
         id="polygon4-7-2-4-4-6-2"
         style="fill:#abc837;stroke:#dce0df;stroke-linejoin:round"
         transform="matrix(0.26458333,0,0,0.26458333,-32.773154,120.67718)" /><polygon
         class="cls-1"
         points="175.5,87.1 150.5,130.4 200.5,130.4 225.5,87.1 "
         id="polygon6-6-3-9-2-5-6"
         style="fill:#abc837;stroke:#dce0df;stroke-linejoin:round"
         transform="matrix(0.26458333,0,0,0.26458333,-32.773154,120.67718)" /><polygon
         class="cls-1"
         points="200.5,43.8 175.5,87.1 225.5,87.1 250.5,43.8 "
         id="polygon7-5-9-2-4-6-1"
         style="fill:#abc837;stroke:#dce0df;stroke-linejoin:round"
         transform="matrix(0.26458333,0,0,0.26458333,-32.773154,120.67718)" /><polygon
         class="cls-1"
         points="225.5,0.5 200.5,43.8 250.5,43.8 275.5,0.5 "
         id="polygon8-6-0-2-0-9-0"
         style="fill:#abc837;stroke:#dce0df;stroke-linejoin:round"
         transform="matrix(0.26458333,0,0,0.26458333,-32.773154,120.67718)" /><polygon
         class="cls-2"
         points="175.5,260.31 125.5,260.31 100.5,217.01 150.5,217.01 "
         id="polygon11-3-8-4-6-8-4"
         style="fill:#00695c;stroke:#dce0df;stroke-linejoin:round;fill-opacity:1"
         transform="matrix(0.26458333,0,0,0.26458333,-32.773154,120.67718)" /><polygon
         class="cls-3"
         points="150.5,217.01 175.5,260.31 200.5,217.01 175.5,173.71 "
         id="polygon12-5-8-0-6-4"
         style="fill:#00796b;stroke:#dce0df;stroke-linejoin:round"
         transform="matrix(0.26458333,0,0,0.26458333,-12.338849,109.1454)" /><polygon
         class="cls-3"
         points="150.5,217.01 175.5,260.31 200.5,217.01 175.5,173.71 "
         id="polygon12-5-8-4-5-2-6"
         style="fill:#00796b;stroke:#dce0df;stroke-linejoin:round"
         transform="matrix(0.26458333,0,0,0.26458333,-18.953432,120.81087)" /><polygon
         class="cls-3"
         points="150.5,217.01 175.5,260.31 200.5,217.01 175.5,173.71 "
         id="polygon12-5-5-1-9-8-2"
         style="fill:#00796b;stroke:#dce0df;stroke-linejoin:round"
         transform="matrix(0.26458333,0,0,0.26458333,-5.7242653,97.688057)" /><polygon
         class="cls-1"
         points="100.5,217.01 150.5,217.01 175.5,173.71 125.5,173.71 "
         id="polygon4-7-2-4-4-6"
         style="fill:#abc837;stroke:#dce0df;stroke-linejoin:round"
         transform="matrix(0.26458333,0,0,0.26458333,-19.20903,120.64199)" /><polygon
         class="cls-1"
         points="200.5,130.4 225.5,87.1 175.5,87.1 150.5,130.4 "
         id="polygon6-6-3-9-2-5"
         style="fill:#abc837;stroke:#dce0df;stroke-linejoin:round"
         transform="matrix(0.26458333,0,0,0.26458333,-19.20903,120.64199)" /><polygon
         class="cls-1"
         points="250.5,43.8 275.5,0.5 225.5,0.5 200.5,43.8 "
         id="polygon8-6-0-2-0-9"
         style="fill:#abc837;stroke:#dce0df;stroke-linejoin:round"
         transform="matrix(0.26458333,0,0,0.26458333,-19.20903,120.64199)" /><polygon
         class="cls-2"
         points="100.5,217.01 150.5,217.01 175.5,260.31 125.5,260.31 "
         id="polygon11-3-8-4-6-8"
         style="fill:#00695c;stroke:#dce0df;stroke-linejoin:round;fill-opacity:1"
         transform="matrix(0.26458333,0,0,0.26458333,-19.20903,120.64199)" /><polygon
         class="cls-8"
         points="250.5,43.8 275.5,87.1 325.5,87.1 300.5,43.8 "
         id="polygon31-9-0-0"
         style="fill:#00695c;stroke:#dce0df;stroke-linejoin:round"
         transform="matrix(0.26458333,0,0,0.26458333,-19.26219,120.68766)" /><polygon
         class="cls-8"
         points="250.5,43.8 275.5,87.1 325.5,87.1 300.5,43.8 "
         id="polygon31-9-0-0-3"
         style="fill:#00695c;stroke:#dce0df;stroke-linejoin:round"
         transform="matrix(0.26458333,0,0,0.26458333,-32.473386,120.8704)" /><polygon
         class="cls-3"
         points="175.5,173.71 150.5,217.01 175.5,260.31 200.5,217.01 "
         id="polygon12-5-8-0-6"
         style="fill:#00796b;stroke:#dce0df;stroke-linejoin:round"
         transform="matrix(0.26458333,0,0,0.26458333,1.1197117,109.11021)" /><polygon
         class="cls-3"
         points="175.5,173.71 150.5,217.01 175.5,260.31 200.5,217.01 "
         id="polygon12-5-8-0-6-6"
         style="fill:#00796b;stroke:#dce0df;stroke-linejoin:round"
         transform="matrix(0.26458333,0,0,0.26458333,20.637497,75.086092)" /><polygon
         class="cls-3"
         points="150.5,217.01 175.5,260.31 200.5,217.01 175.5,173.71 "
         id="polygon12-5-8-0-6-0"
         style="fill:#00796b;stroke:#dce0df;stroke-linejoin:round"
         transform="matrix(0.26458333,0,0,0.26458333,7.6729143,97.575675)" /><polygon
         class="cls-3"
         points="150.5,217.01 175.5,260.31 200.5,217.01 175.5,173.71 "
         id="polygon12-5-8-4-5-2"
         style="fill:#00796b;stroke:#dce0df;stroke-linejoin:round"
         transform="matrix(0.26458333,0,0,0.26458333,-5.4948716,120.54629)" /><polygon
         class="cls-1"
         points="175.5,173.71 125.5,173.71 100.5,217.01 150.5,217.01 "
         id="polygon4-7-2-4-4"
         style="fill:#abc837;stroke:#dce0df;stroke-linejoin:round"
         transform="matrix(0.26458333,0,0,0.26458333,-5.7504696,120.6068)" /><polygon
         class="cls-1"
         points="150.5,130.4 125.5,173.71 175.5,173.71 200.5,130.4 "
         id="polygon5-3-9-6-7"
         style="fill:#abc837;stroke:#dce0df;stroke-linejoin:round"
         transform="matrix(0.26458333,0,0,0.26458333,-5.7504696,120.6068)" /><polygon
         class="cls-1"
         points="175.5,87.1 150.5,130.4 200.5,130.4 225.5,87.1 "
         id="polygon6-6-3-9-2"
         style="fill:#abc837;stroke:#dce0df;stroke-linejoin:round"
         transform="matrix(0.26458333,0,0,0.26458333,-5.7504696,120.6068)" /><polygon
         class="cls-1"
         points="225.5,0.5 200.5,43.8 250.5,43.8 275.5,0.5 "
         id="polygon8-6-0-2-0"
         style="fill:#abc837;stroke:#dce0df;stroke-linejoin:round"
         transform="matrix(0.26458333,0,0,0.26458333,-5.7504696,120.6068)" /><polygon
         class="cls-2"
         points="175.5,260.31 125.5,260.31 100.5,217.01 150.5,217.01 "
         id="polygon11-3-8-4-6"
         style="fill:#00695c;stroke:#dce0df;stroke-linejoin:round;fill-opacity:1"
         transform="matrix(0.26458333,0,0,0.26458333,-5.7504696,120.6068)" /><polygon
         class="cls-8"
         points="300.5,130.4 350.5,130.4 325.5,87.1 275.5,87.1 "
         id="polygon30-5-9-9"
         style="fill:#00695c;stroke:#dce0df;stroke-linejoin:round"
         transform="matrix(0.26458333,0,0,0.26458333,-65.84607,132.3975)" /></g><g
       id="g42-6-8-8-9"
       transform="matrix(0.26458333,0,0,0.26458333,30.286264,120.12083)"><polygon
         class="cls-1"
         points="125.5,173.71 100.5,217.01 150.5,217.01 175.5,173.71 "
         id="polygon4-4-1-1-9"
         style="fill:#5e97f6;stroke:#dce0df;stroke-linejoin:round" /><polygon
         class="cls-1"
         points="125.5,173.71 175.5,173.71 200.5,130.4 150.5,130.4 "
         id="polygon5-3-2-3-6"
         style="fill:#5e97f6;stroke:#dce0df;stroke-linejoin:round" /><polygon
         class="cls-1"
         points="150.5,130.4 200.5,130.4 225.5,87.1 175.5,87.1 "
         id="polygon6-3-8-1-0"
         style="fill:#5e97f6;stroke:#dce0df;stroke-linejoin:round" /><polygon
         class="cls-1"
         points="175.5,87.1 225.5,87.1 250.5,43.8 200.5,43.8 "
         id="polygon7-3-9-1-2"
         style="fill:#5e97f6;stroke:#dce0df;stroke-linejoin:round" /><polygon
         class="cls-1"
         points="200.5,43.8 250.5,43.8 275.5,0.5 225.5,0.5 "
         id="polygon8-8-3-0-7"
         style="fill:#5e97f6;stroke:#dce0df;stroke-linejoin:round" /><polygon
         class="cls-2"
         points="125.5,260.31 100.5,217.01 150.5,217.01 175.5,260.31 "
         id="polygon11-6-6-3-6"
         style="fill:#2a56c6;stroke:#dce0df;stroke-linejoin:round" /></g><polygon
       class="cls-3"
       points="175.5,173.71 150.5,217.01 175.5,260.31 200.5,217.01 "
       id="polygon12-0-8-4-1"
       style="fill:#00796b;stroke:#dce0df;stroke-linejoin:round"
       transform="matrix(0.26458333,0,0,0.26458333,30.286264,120.12083)" /><polygon
       class="cls-3"
       points="200.5,130.4 250.5,130.4 225.5,87.1 "
       id="polygon13-4-0-0-3"
       style="fill:#00796b;stroke:#dce0df;stroke-linejoin:round"
       transform="matrix(0.26458333,0,0,0.26458333,30.286264,120.12083)" /><polygon
       class="cls-3"
       points="225.5,87.1 250.5,130.4 275.5,87.1 250.5,43.8 "
       id="polygon14-8-2-3-2"
       style="fill:#00796b;stroke:#dce0df;stroke-linejoin:round"
       transform="matrix(0.26458333,0,0,0.26458333,30.286264,120.12083)" /><polygon
       class="cls-8"
       points="375.5,260.31 425.5,260.31 400.5,217.01 350.5,217.01 "
       id="polygon32-6-8-1-9-1"
       style="fill:#00695c;stroke:#dce0df;stroke-linejoin:round"
       transform="matrix(0.26458333,0,0,0.26458333,-35.997279,120.10788)" /><g
       id="g42-6-8-8"
       transform="matrix(0.26458333,0,0,0.26458333,43.850389,120.08565)"><polygon
         class="cls-1"
         points="150.5,217.01 175.5,173.71 125.5,173.71 100.5,217.01 "
         id="polygon4-4-1-1"
         style="fill:#5e97f6;stroke:#dce0df;stroke-linejoin:round" /><polygon
         class="cls-1"
         points="200.5,130.4 150.5,130.4 125.5,173.71 175.5,173.71 "
         id="polygon5-3-2-3"
         style="fill:#5e97f6;stroke:#dce0df;stroke-linejoin:round" /><polygon
         class="cls-1"
         points="225.5,87.1 175.5,87.1 150.5,130.4 200.5,130.4 "
         id="polygon6-3-8-1"
         style="fill:#5e97f6;stroke:#dce0df;stroke-linejoin:round" /><polygon
         class="cls-1"
         points="250.5,43.8 200.5,43.8 175.5,87.1 225.5,87.1 "
         id="polygon7-3-9-1"
         style="fill:#5e97f6;stroke:#dce0df;stroke-linejoin:round" /></g><polygon
       class="cls-3"
       points="175.5,260.31 200.5,217.01 175.5,173.71 150.5,217.01 "
       id="polygon12-0-8-4"
       style="fill:#00796b;stroke:#dce0df;stroke-linejoin:round"
       transform="matrix(0.26458333,0,0,0.26458333,43.850389,120.08565)" /><polygon
       class="cls-3"
       points="250.5,130.4 225.5,87.1 200.5,130.4 "
       id="polygon13-4-0-0"
       style="fill:#00796b;stroke:#dce0df;stroke-linejoin:round"
       transform="matrix(0.26458333,0,0,0.26458333,43.850389,120.08565)" /><polygon
       class="cls-3"
       points="275.5,87.1 250.5,43.8 225.5,87.1 250.5,130.4 "
       id="polygon14-8-2-3"
       style="fill:#00796b;stroke:#dce0df;stroke-linejoin:round"
       transform="matrix(0.26458333,0,0,0.26458333,43.850389,120.08565)" /><polygon
       class="cls-1"
       points="150.5,217.01 175.5,173.71 125.5,173.71 100.5,217.01 "
       id="polygon4-4-1"
       style="fill:#5e97f6;stroke:#dce0df;stroke-linejoin:round"
       transform="matrix(0.26458333,0,0,0.26458333,57.308949,120.05046)" /><polygon
       class="cls-1"
       points="200.5,130.4 150.5,130.4 125.5,173.71 175.5,173.71 "
       id="polygon5-3-2"
       style="fill:#5e97f6;stroke:#dce0df;stroke-linejoin:round"
       transform="matrix(0.26458333,0,0,0.26458333,57.308949,120.05046)" /><polygon
       class="cls-1"
       points="225.5,87.1 175.5,87.1 150.5,130.4 200.5,130.4 "
       id="polygon6-3-8"
       style="fill:#5e97f6;stroke:#dce0df;stroke-linejoin:round"
       transform="matrix(0.26458333,0,0,0.26458333,57.308949,120.05046)" /><polygon
       class="cls-1"
       points="250.5,43.8 200.5,43.8 175.5,87.1 225.5,87.1 "
       id="polygon7-3-9"
       style="fill:#ff9955;stroke:#dce0df;stroke-linejoin:round"
       transform="matrix(0.26458333,0,0,0.26458333,57.308949,120.05046)" /><polygon
       class="cls-1"
       points="275.5,0.5 225.5,0.5 200.5,43.8 250.5,43.8 "
       id="polygon8-8-3"
       style="fill:#ff9955;stroke:#dce0df;stroke-linejoin:round"
       transform="matrix(0.26458333,0,0,0.26458333,57.308949,120.05046)" /><polygon
       class="cls-2"
       points="150.5,217.01 175.5,260.31 125.5,260.31 100.5,217.01 "
       id="polygon11-6-6"
       style="fill:#2a56c6;stroke:#dce0df;stroke-linejoin:round"
       transform="matrix(0.26458333,0,0,0.26458333,57.308949,120.05046)" /><polygon
       class="cls-3"
       points="175.5,173.71 150.5,217.01 175.5,260.31 200.5,217.01 "
       id="polygon12-0-8"
       style="fill:#00796b;stroke:#dce0df;stroke-linejoin:round"
       transform="matrix(0.26458333,0,0,0.26458333,57.308949,120.05046)" /><polygon
       class="cls-3"
       points="250.5,130.4 225.5,87.1 200.5,130.4 "
       id="polygon13-4-0"
       style="fill:#00796b;stroke:#dce0df;stroke-linejoin:round"
       transform="matrix(0.26458333,0,0,0.26458333,57.308949,120.05046)" /><polygon
       class="cls-3"
       points="225.5,87.1 250.5,130.4 275.5,87.1 250.5,43.8 "
       id="polygon14-8-2"
       style="fill:#00796b;stroke:#dce0df;stroke-linejoin:round"
       transform="matrix(0.26458333,0,0,0.26458333,57.308949,120.05046)" /><polygon
       class="cls-8"
       points="375.5,260.31 425.5,260.31 400.5,217.01 350.5,217.01 "
       id="polygon32-6-8-1"
       style="fill:#00695c;stroke:#dce0df;stroke-linejoin:round"
       transform="matrix(0.26458333,0,0,0.26458333,-8.9745948,120.03751)" /><polygon
       class="cls-6"
       points="325.5,87.1 350.5,43.8 325.5,0.5 300.5,43.8 "
       id="polygon18-7-9-5"
       style="fill:#9c27b0;stroke:#dce0df;stroke-linejoin:round"
       transform="matrix(0.26458333,0,0,0.26458333,-8.6788568,120.68766)" /><polygon
       class="cls-6"
       points="350.5,130.4 375.5,87.1 350.5,43.8 325.5,87.1 "
       id="polygon19-6-7-1"
       style="fill:#9c27b0;stroke:#dce0df;stroke-linejoin:round"
       transform="matrix(0.26458333,0,0,0.26458333,-8.6788568,120.68766)" /><polygon
       class="cls-6"
       points="375.5,173.71 400.5,130.4 375.5,87.1 350.5,130.4 "
       id="polygon20-3-7-1"
       style="fill:#9c27b0;stroke:#dce0df;stroke-linejoin:round"
       transform="matrix(0.26458333,0,0,0.26458333,-8.6788568,120.68766)" /><polygon
       class="cls-6"
       points="400.5,217.01 425.5,173.71 400.5,130.4 375.5,173.71 "
       id="polygon21-1-6-0"
       style="fill:#9c27b0;stroke:#dce0df;stroke-linejoin:round"
       transform="matrix(0.26458333,0,0,0.26458333,-8.6788568,120.68766)" /><polygon
       class="cls-6"
       points="425.5,260.31 450.5,217.01 425.5,173.71 400.5,217.01 "
       id="polygon22-7-4-8"
       style="fill:#9c27b0;stroke:#dce0df;stroke-linejoin:round"
       transform="matrix(0.26458333,0,0,0.26458333,-8.6788568,120.68766)" /><polygon
       class="cls-8"
       points="325.5,87.1 275.5,87.1 300.5,130.4 350.5,130.4 "
       id="polygon30-5-3-5"
       style="fill:#00695c;stroke:#dce0df;stroke-linejoin:round"
       transform="matrix(0.26458333,0,0,0.26458333,-8.6788568,120.68766)" /><polygon
       class="cls-8"
       points="300.5,130.4 350.5,130.4 325.5,87.1 275.5,87.1 "
       id="polygon30-5-9-3-6"
       style="fill:#803300;stroke:#dce0df;stroke-linejoin:round;fill-opacity:1"
       transform="matrix(0.26458333,0,0,0.26458333,4.5101804,143.7073)" /><polygon
       class="cls-8"
       points="350.5,130.4 325.5,87.1 275.5,87.1 300.5,130.4 "
       id="polygon30-5-9-8-0-4"
       style="fill:#803300;stroke:#dce0df;stroke-linejoin:round;fill-opacity:1"
       transform="matrix(0.26458333,0,0,0.26458333,11.020698,155.26959)" /><polygon
       class="cls-8"
       points="250.5,43.8 275.5,87.1 325.5,87.1 300.5,43.8 "
       id="polygon31-9-7-9-6"
       style="fill:#00695c;stroke:#dce0df;stroke-linejoin:round"
       transform="matrix(0.26458333,0,0,0.26458333,4.5101804,143.7073)" /><polygon
       class="cls-3"
       points="200.5,217.01 175.5,173.71 150.5,217.01 175.5,260.31 "
       id="polygon12-5-4-8"
       style="fill:#00796b;stroke:#dce0df;stroke-linejoin:round"
       transform="matrix(0.26458333,0,0,0.26458333,24.972341,86.115269)" /><polygon
       class="cls-3"
       points="150.5,217.01 175.5,260.31 200.5,217.01 175.5,173.71 "
       id="polygon12-5-5-1-9-8"
       style="fill:#00796b;stroke:#dce0df;stroke-linejoin:round"
       transform="matrix(0.26458333,0,0,0.26458333,18.317628,97.65287)" /><polygon
       class="cls-1"
       points="150.5,217.01 175.5,173.71 125.5,173.71 100.5,217.01 "
       id="polygon4-4"
       style="fill:#5e97f6;stroke:#dce0df;stroke-linejoin:round"
       transform="matrix(0.26458333,0,0,0.26458333,70.996907,119.85625)" /><polygon
       class="cls-1"
       points="200.5,130.4 150.5,130.4 125.5,173.71 175.5,173.71 "
       id="polygon5-3"
       style="fill:#5e97f6;stroke:#dce0df;stroke-linejoin:round"
       transform="matrix(0.26458333,0,0,0.26458333,70.996907,119.85625)" /><polygon
       class="cls-1"
       points="225.5,87.1 175.5,87.1 150.5,130.4 200.5,130.4 "
       id="polygon6-3"
       style="fill:#ff9955;stroke:#dce0df;stroke-linejoin:round"
       transform="matrix(0.26458333,0,0,0.26458333,70.996907,119.85625)" /><polygon
       class="cls-1"
       points="250.5,43.8 200.5,43.8 175.5,87.1 225.5,87.1 "
       id="polygon7-3"
       style="fill:#ff9955;stroke:#dce0df;stroke-linejoin:round"
       transform="matrix(0.26458333,0,0,0.26458333,70.996907,119.85625)" /><polygon
       class="cls-1"
       points="275.5,0.5 225.5,0.5 200.5,43.8 250.5,43.8 "
       id="polygon8-8"
       style="fill:#ff9955;stroke:#dce0df;stroke-linejoin:round"
       transform="matrix(0.26458333,0,0,0.26458333,70.996907,119.85625)" /><polygon
       class="cls-2"
       points="150.5,217.01 175.5,260.31 125.5,260.31 100.5,217.01 "
       id="polygon11-6"
       style="fill:#2a56c6;stroke:#dce0df;stroke-linejoin:round"
       transform="matrix(0.26458333,0,0,0.26458333,70.996907,119.85625)" /><polygon
       class="cls-3"
       points="175.5,173.71 150.5,217.01 175.5,260.31 200.5,217.01 "
       id="polygon12-0"
       style="fill:#00796b;stroke:#dce0df;stroke-linejoin:round"
       transform="matrix(0.26458333,0,0,0.26458333,70.996907,119.85625)" /><polygon
       class="cls-3"
       points="200.5,130.4 250.5,130.4 225.5,87.1 "
       id="polygon13-4"
       style="fill:#00796b;stroke:#dce0df;stroke-linejoin:round"
       transform="matrix(0.26458333,0,0,0.26458333,70.996907,119.85625)" /><polygon
       class="cls-3"
       points="225.5,87.1 250.5,130.4 275.5,87.1 250.5,43.8 "
       id="polygon14-8"
       style="fill:#00796b;stroke:#dce0df;stroke-linejoin:round"
       transform="matrix(0.26458333,0,0,0.26458333,70.996907,119.85625)" /><polygon
       class="cls-8"
       points="375.5,260.31 425.5,260.31 400.5,217.01 350.5,217.01 "
       id="polygon32-6-8"
       style="fill:#00695c;stroke:#dce0df;stroke-linejoin:round"
       transform="matrix(0.26458333,0,0,0.26458333,4.7133645,119.8433)" /><polygon
       class="cls-6"
       points="325.5,87.1 350.5,43.8 325.5,0.5 300.5,43.8 "
       id="polygon18-7-9"
       style="fill:#9c27b0;stroke:#dce0df;stroke-linejoin:round"
       transform="matrix(0.26458333,0,0,0.26458333,5.0091025,120.49345)" /><polygon
       class="cls-6"
       points="350.5,130.4 375.5,87.1 350.5,43.8 325.5,87.1 "
       id="polygon19-6-7"
       style="fill:#9c27b0;stroke:#dce0df;stroke-linejoin:round"
       transform="matrix(0.26458333,0,0,0.26458333,5.0091025,120.49345)" /><polygon
       class="cls-6"
       points="375.5,173.71 400.5,130.4 375.5,87.1 350.5,130.4 "
       id="polygon20-3-7"
       style="fill:#9c27b0;stroke:#dce0df;stroke-linejoin:round"
       transform="matrix(0.26458333,0,0,0.26458333,5.0091025,120.49345)" /><polygon
       class="cls-6"
       points="400.5,217.01 425.5,173.71 400.5,130.4 375.5,173.71 "
       id="polygon21-1-6"
       style="fill:#9c27b0;stroke:#dce0df;stroke-linejoin:round"
       transform="matrix(0.26458333,0,0,0.26458333,5.0091025,120.49345)" /><polygon
       class="cls-6"
       points="425.5,260.31 450.5,217.01 425.5,173.71 400.5,217.01 "
       id="polygon22-7-4"
       style="fill:#9c27b0;stroke:#dce0df;stroke-linejoin:round"
       transform="matrix(0.26458333,0,0,0.26458333,5.0091025,120.49345)" /><polygon
       class="cls-8"
       points="325.5,87.1 275.5,87.1 300.5,130.4 350.5,130.4 "
       id="polygon30-5-3"
       style="fill:#00695c;stroke:#dce0df;stroke-linejoin:round"
       transform="matrix(0.26458333,0,0,0.26458333,5.0091025,120.49345)" /><polygon
       class="cls-8"
       points="325.5,87.1 300.5,43.8 250.5,43.8 275.5,87.1 "
       id="polygon31-9-0"
       style="fill:#00695c;stroke:#dce0df;stroke-linejoin:round"
       transform="matrix(0.26458333,0,0,0.26458333,5.0091025,120.49345)" /><polygon
       class="cls-8"
       points="300.5,130.4 350.5,130.4 325.5,87.1 275.5,87.1 "
       id="polygon30-5-9-3"
       style="fill:#803300;stroke:#dce0df;stroke-linejoin:round;fill-opacity:1"
       transform="matrix(0.26458333,0,0,0.26458333,18.19814,143.51309)" /><polygon
       class="cls-8"
       points="350.5,130.4 325.5,87.1 275.5,87.1 300.5,130.4 "
       id="polygon30-5-9-8-0"
       style="fill:#803300;stroke:#dce0df;stroke-linejoin:round;fill-opacity:1"
       transform="matrix(0.26458333,0,0,0.26458333,24.708657,155.07538)" /><polygon
       class="cls-8"
       points="250.5,43.8 275.5,87.1 325.5,87.1 300.5,43.8 "
       id="polygon31-9-7-9"
       style="fill:#803300;stroke:#dce0df;stroke-linejoin:round;fill-opacity:1"
       transform="matrix(0.26458333,0,0,0.26458333,18.19814,143.51309)" /><polygon
       class="cls-9"
       points="300.5,43.8 325.5,0.5 275.5,0.5 250.5,43.8 "
       id="polygon34-1-2"
       style="fill:#ea80fc;stroke:#dce0df;stroke-linejoin:round"
       transform="matrix(0.26458333,0,0,0.26458333,5.0091025,120.49345)" /><polygon
       class="cls-3"
       points="200.5,217.01 175.5,173.71 150.5,217.01 175.5,260.31 "
       id="polygon12-5-4"
       style="fill:#00796b;stroke:#dce0df;stroke-linejoin:round"
       transform="matrix(0.26458333,0,0,0.26458333,38.6603,85.92106)" /><polygon
       class="cls-3"
       points="150.5,217.01 175.5,260.31 200.5,217.01 175.5,173.71 "
       id="polygon12-5-8-0"
       style="fill:#00796b;stroke:#dce0df;stroke-linejoin:round"
       transform="matrix(0.26458333,0,0,0.26458333,25.391004,108.916)" /><polygon
       class="cls-3"
       points="150.5,217.01 175.5,260.31 200.5,217.01 175.5,173.71 "
       id="polygon12-5-8-4-5"
       style="fill:#00796b;stroke:#dce0df;stroke-linejoin:round"
       transform="matrix(0.26458333,0,0,0.26458333,18.776421,120.58148)" /><polygon
       class="cls-3"
       points="150.5,217.01 175.5,260.31 200.5,217.01 175.5,173.71 "
       id="polygon12-5-5-1-9"
       style="fill:#00796b;stroke:#dce0df;stroke-linejoin:round"
       transform="matrix(0.26458333,0,0,0.26458333,32.005587,97.45866)" /><polygon
       class="cls-1"
       points="100.5,217.01 150.5,217.01 175.5,173.71 125.5,173.71 "
       id="polygon4-7-2-4"
       style="fill:#ff9955;stroke:#dce0df;stroke-linejoin:round"
       transform="matrix(0.26458333,0,0,0.26458333,18.520823,120.41259)" /><polygon
       class="cls-1"
       points="175.5,173.71 200.5,130.4 150.5,130.4 125.5,173.71 "
       id="polygon5-3-9-6"
       style="fill:#ff9955;stroke:#dce0df;stroke-linejoin:round"
       transform="matrix(0.26458333,0,0,0.26458333,18.520823,120.41259)" /><polygon
       class="cls-1"
       points="200.5,130.4 225.5,87.1 175.5,87.1 150.5,130.4 "
       id="polygon6-6-3-9"
       style="fill:#ff9955;stroke:#dce0df;stroke-linejoin:round"
       transform="matrix(0.26458333,0,0,0.26458333,18.520823,120.41259)" /><polygon
       class="cls-1"
       points="225.5,87.1 250.5,43.8 200.5,43.8 175.5,87.1 "
       id="polygon7-5-9-2"
       style="fill:#ff9955;stroke:#dce0df;stroke-linejoin:round"
       transform="matrix(0.26458333,0,0,0.26458333,18.520823,120.41259)" /><polygon
       class="cls-1"
       points="250.5,43.8 275.5,0.5 225.5,0.5 200.5,43.8 "
       id="polygon8-6-0-2"
       style="fill:#ff9955;stroke:#dce0df;stroke-linejoin:round"
       transform="matrix(0.26458333,0,0,0.26458333,18.520823,120.41259)" /><polygon
       class="cls-2"
       points="100.5,217.01 150.5,217.01 175.5,260.31 125.5,260.31 "
       id="polygon11-3-8-4"
       style="fill:#803300;stroke:#dce0df;stroke-linejoin:round"
       transform="matrix(0.26458333,0,0,0.26458333,18.520823,120.41259)" /><polygon
       class="cls-5"
       points="200.5,130.4 175.5,173.71 225.5,173.71 250.5,130.4 "
       id="polygon16"
       transform="matrix(0.26458333,0,0,0.26458333,84.499653,119.82907)" /><polygon
       class="cls-5"
       points="250.5,130.4 225.5,173.71 275.5,173.71 300.5,130.4 "
       id="polygon17"
       transform="matrix(0.26458333,0,0,0.26458333,84.499653,119.82907)" /><polygon
       class="cls-6"
       points="325.5,0.5 300.5,43.8 325.5,87.1 350.5,43.8 "
       id="polygon18"
       transform="matrix(0.26458333,0,0,0.26458333,84.499653,119.82907)" /><polygon
       class="cls-6"
       points="350.5,43.8 325.5,87.1 350.5,130.4 375.5,87.1 "
       id="polygon19"
       transform="matrix(0.26458333,0,0,0.26458333,84.499653,119.82907)" /><polygon
       class="cls-6"
       points="375.5,87.1 350.5,130.4 375.5,173.71 400.5,130.4 "
       id="polygon20"
       transform="matrix(0.26458333,0,0,0.26458333,84.499653,119.82907)" /><polygon
       class="cls-6"
       points="400.5,130.4 375.5,173.71 400.5,217.01 425.5,173.71 "
       id="polygon21"
       transform="matrix(0.26458333,0,0,0.26458333,84.499653,119.82907)" /><polygon
       class="cls-6"
       points="425.5,173.71 400.5,217.01 425.5,260.31 450.5,217.01 "
       id="polygon22"
       transform="matrix(0.26458333,0,0,0.26458333,84.499653,119.82907)" /><polygon
       class="cls-6"
       points="400.5,43.8 425.5,87.1 450.5,43.8 425.5,0.5 "
       id="polygon23"
       transform="matrix(0.26458333,0,0,0.26458333,84.499653,119.82907)" /><polygon
       class="cls-6"
       points="400.5,43.8 425.5,87.1 400.5,130.4 375.5,87.1 "
       id="polygon24"
       transform="matrix(0.26458333,0,0,0.26458333,84.499653,119.82907)" /><polygon
       class="cls-6"
       points="325.5,173.71 350.5,217.01 375.5,173.71 350.5,130.4 "
       id="polygon25"
       transform="matrix(0.26458333,0,0,0.26458333,84.499653,119.82907)" /><polygon
       class="cls-6"
       points="300.5,217.01 325.5,173.71 350.5,217.01 325.5,260.31 "
       id="polygon26"
       transform="matrix(0.26458333,0,0,0.26458333,84.499653,119.82907)" /><polygon
       class="cls-7"
       points="250.5,217.01 300.5,217.01 325.5,260.31 275.5,260.31 "
       id="polygon27"
       transform="matrix(0.26458333,0,0,0.26458333,84.499653,119.82907)" /><polygon
       class="cls-8"
       points="175.5,173.71 200.5,217.01 250.5,217.01 225.5,173.71 "
       id="polygon28"
       transform="matrix(0.26458333,0,0,0.26458333,84.499653,119.82907)" /><polygon
       class="cls-8"
       points="225.5,173.71 250.5,217.01 275.5,173.71 "
       id="polygon29"
       transform="matrix(0.26458333,0,0,0.26458333,84.499653,119.82907)" /><polygon
       class="cls-8"
       points="300.5,130.4 350.5,130.4 325.5,87.1 275.5,87.1 "
       id="polygon30"
       transform="matrix(0.26458333,0,0,0.26458333,84.499653,119.82907)" /><polygon
       class="cls-8"
       points="250.5,43.8 275.5,87.1 325.5,87.1 300.5,43.8 "
       id="polygon31"
       transform="matrix(0.26458333,0,0,0.26458333,84.499653,119.82907)" /><polygon
       class="cls-8"
       points="400.5,217.01 350.5,217.01 375.5,260.31 425.5,260.31 "
       id="polygon32"
       transform="matrix(0.26458333,0,0,0.26458333,84.499653,119.82907)" /><polygon
       class="cls-8"
       points="350.5,217.01 400.5,217.01 375.5,173.71 "
       id="polygon33"
       transform="matrix(0.26458333,0,0,0.26458333,84.499653,119.82907)" /><polygon
       class="cls-9"
       points="275.5,0.5 250.5,43.8 300.5,43.8 325.5,0.5 "
       id="polygon34"
       transform="matrix(0.26458333,0,0,0.26458333,84.499653,119.82907)" /><polygon
       class="cls-9"
       points="275.5,173.71 250.5,217.01 300.5,217.01 325.5,173.71 "
       id="polygon35"
       transform="matrix(0.26458333,0,0,0.26458333,84.499653,119.82907)" /><polygon
       class="cls-9"
       points="300.5,130.4 275.5,173.71 325.5,173.71 350.5,130.4 "
       id="polygon36"
       transform="matrix(0.26458333,0,0,0.26458333,84.499653,119.82907)" /><polygon
       class="cls-9"
       points="375.5,0.5 350.5,43.8 400.5,43.8 425.5,0.5 "
       id="polygon37"
       transform="matrix(0.26458333,0,0,0.26458333,84.499653,119.82907)" /><polygon
       class="cls-9"
       points="350.5,43.8 400.5,43.8 375.5,87.1 "
       id="polygon38"
       transform="matrix(0.26458333,0,0,0.26458333,84.499653,119.82907)" /><polygon
       class="cls-1"
       points="175.5,173.71 125.5,173.71 100.5,217.01 150.5,217.01 "
       id="polygon4"
       transform="matrix(0.26458333,0,0,0.26458333,84.729049,119.82907)" /><polygon
       class="cls-1"
       points="150.5,130.4 125.5,173.71 175.5,173.71 200.5,130.4 "
       id="polygon5"
       transform="matrix(0.26458333,0,0,0.26458333,84.729049,119.82907)"
       style="fill:#26a69a;fill-opacity:1" /><polygon
       class="cls-1"
       points="175.5,87.1 150.5,130.4 200.5,130.4 225.5,87.1 "
       id="polygon6"
       transform="matrix(0.26458333,0,0,0.26458333,84.729049,119.82907)"
       style="fill:#26a69a;fill-opacity:1" /><polygon
       class="cls-1"
       points="200.5,43.8 175.5,87.1 225.5,87.1 250.5,43.8 "
       id="polygon7"
       transform="matrix(0.26458333,0,0,0.26458333,84.729049,119.82907)"
       style="fill:#26a69a;fill-opacity:1" /><polygon
       class="cls-1"
       points="225.5,0.5 200.5,43.8 250.5,43.8 275.5,0.5 "
       id="polygon8"
       transform="matrix(0.26458333,0,0,0.26458333,84.729049,119.82907)"
       style="fill:#26a69a;fill-opacity:1" /><polygon
       class="cls-2"
       points="175.5,260.31 125.5,260.31 100.5,217.01 150.5,217.01 "
       id="polygon11"
       transform="matrix(0.26458333,0,0,0.26458333,84.729049,119.82907)" /><polygon
       class="cls-3"
       points="150.5,217.01 175.5,260.31 200.5,217.01 175.5,173.71 "
       id="polygon12"
       transform="matrix(0.26458333,0,0,0.26458333,84.729049,119.82907)" /><polygon
       class="cls-3"
       points="250.5,130.4 225.5,87.1 200.5,130.4 "
       id="polygon13"
       transform="matrix(0.26458333,0,0,0.26458333,84.729049,119.82907)" /><polygon
       class="cls-3"
       points="250.5,130.4 275.5,87.1 250.5,43.8 225.5,87.1 "
       id="polygon14"
       transform="matrix(0.26458333,0,0,0.26458333,84.729049,119.82907)" /><polygon
       class="cls-8"
       points="425.5,260.31 400.5,217.01 350.5,217.01 375.5,260.31 "
       id="polygon32-6"
       style="fill:#00695c;stroke:#dce0df;stroke-linejoin:round"
       transform="matrix(0.26458333,0,0,0.26458333,18.445507,119.81612)" /><polygon
       class="cls-6"
       points="350.5,43.8 325.5,0.5 300.5,43.8 325.5,87.1 "
       id="polygon18-7"
       style="fill:#d45500;stroke:#dce0df;stroke-linejoin:round"
       transform="matrix(0.26458333,0,0,0.26458333,18.741245,120.46627)" /><polygon
       class="cls-6"
       points="375.5,87.1 350.5,43.8 325.5,87.1 350.5,130.4 "
       id="polygon19-6"
       style="fill:#d45500;stroke:#dce0df;stroke-linejoin:round"
       transform="matrix(0.26458333,0,0,0.26458333,18.741245,120.46627)" /><polygon
       class="cls-6"
       points="400.5,130.4 375.5,87.1 350.5,130.4 375.5,173.71 "
       id="polygon20-3"
       style="fill:#d45500;stroke:#dce0df;stroke-linejoin:round"
       transform="matrix(0.26458333,0,0,0.26458333,18.741245,120.46627)" /><polygon
       class="cls-6"
       points="425.5,173.71 400.5,130.4 375.5,173.71 400.5,217.01 "
       id="polygon21-1"
       style="fill:#d45500;stroke:#dce0df;stroke-linejoin:round"
       transform="matrix(0.26458333,0,0,0.26458333,18.741245,120.46627)" /><polygon
       class="cls-6"
       points="450.5,217.01 425.5,173.71 400.5,217.01 425.5,260.31 "
       id="polygon22-7"
       style="fill:#d45500;stroke:#dce0df;stroke-linejoin:round;fill-opacity:1"
       transform="matrix(0.26458333,0,0,0.26458333,18.741245,120.46627)" /><polygon
       class="cls-8"
       points="275.5,87.1 300.5,130.4 350.5,130.4 325.5,87.1 "
       id="polygon30-5"
       style="fill:#803300;stroke:#dce0df;stroke-linejoin:round;fill-opacity:1"
       transform="matrix(0.26458333,0,0,0.26458333,18.741245,120.46627)" /><polygon
       class="cls-8"
       points="300.5,43.8 250.5,43.8 275.5,87.1 325.5,87.1 "
       id="polygon31-9"
       style="fill:#00695c;stroke:#dce0df;stroke-linejoin:round"
       transform="matrix(0.26458333,0,0,0.26458333,18.741245,120.46627)" /><polygon
       class="cls-8"
       points="350.5,130.4 325.5,87.1 275.5,87.1 300.5,130.4 "
       id="polygon30-5-9"
       style="fill:#803300;stroke:#dce0df;stroke-linejoin:round;fill-opacity:1"
       transform="matrix(0.26458333,0,0,0.26458333,31.930282,143.48591)" /><polygon
       class="cls-8"
       points="325.5,87.1 275.5,87.1 300.5,130.4 350.5,130.4 "
       id="polygon30-5-9-8"
       style="fill:#803300;stroke:#dce0df;stroke-linejoin:round;fill-opacity:1"
       transform="matrix(0.26458333,0,0,0.26458333,38.440799,155.0482)" /><polygon
       class="cls-8"
       points="275.5,87.1 325.5,87.1 300.5,43.8 250.5,43.8 "
       id="polygon31-9-7"
       style="fill:#803300;stroke:#dce0df;stroke-linejoin:round;fill-opacity:1"
       transform="matrix(0.26458333,0,0,0.26458333,31.930282,143.48591)" /><polygon
       class="cls-9"
       points="325.5,0.5 275.5,0.5 250.5,43.8 300.5,43.8 "
       id="polygon34-1"
       style="fill:#ea80fc;stroke:#dce0df;stroke-linejoin:round"
       transform="matrix(0.26458333,0,0,0.26458333,18.741245,120.46627)" /><polygon
       class="cls-3"
       points="150.5,217.01 175.5,260.31 200.5,217.01 175.5,173.71 "
       id="polygon12-5"
       style="fill:#d45500;fill-opacity:1;stroke:#dce0df;stroke-linejoin:round"
       transform="matrix(0.26458333,0,0,0.26458333,52.163046,85.893879)" /><polygon
       class="cls-3"
       points="175.5,260.31 200.5,217.01 175.5,173.71 150.5,217.01 "
       id="polygon12-5-8"
       style="fill:#d45500;fill-opacity:1;stroke:#dce0df;stroke-linejoin:round"
       transform="matrix(0.26458333,0,0,0.26458333,39.123146,108.88882)" /><polygon
       class="cls-3"
       points="175.5,260.31 200.5,217.01 175.5,173.71 150.5,217.01 "
       id="polygon12-5-8-4"
       style="fill:#d45500;fill-opacity:1;stroke:#dce0df;stroke-linejoin:round"
       transform="matrix(0.26458333,0,0,0.26458333,32.508563,120.5543)" /><polygon
       class="cls-3"
       points="175.5,260.31 200.5,217.01 175.5,173.71 150.5,217.01 "
       id="polygon12-5-5-1"
       style="fill:#d45500;fill-opacity:1;stroke:#dce0df;stroke-linejoin:round"
       transform="matrix(0.26458333,0,0,0.26458333,45.737729,97.431481)" /><polygon
       class="cls-1"
       points="150.5,217.01 175.5,173.71 125.5,173.71 100.5,217.01 "
       id="polygon4-7-2"
       style="fill:#ff9955;stroke:#dce0df;stroke-linejoin:round"
       transform="matrix(0.26458333,0,0,0.26458333,32.252965,120.38541)" /><polygon
       class="cls-1"
       points="200.5,130.4 150.5,130.4 125.5,173.71 175.5,173.71 "
       id="polygon5-3-9"
       style="fill:#ff9955;stroke:#dce0df;stroke-linejoin:round"
       transform="matrix(0.26458333,0,0,0.26458333,32.252965,120.38541)" /><polygon
       class="cls-1"
       points="225.5,87.1 175.5,87.1 150.5,130.4 200.5,130.4 "
       id="polygon6-6-3"
       style="fill:#ff9955;stroke:#dce0df;stroke-linejoin:round"
       transform="matrix(0.26458333,0,0,0.26458333,32.252965,120.38541)" /><polygon
       class="cls-1"
       points="250.5,43.8 200.5,43.8 175.5,87.1 225.5,87.1 "
       id="polygon7-5-9"
       style="fill:#ff9955;stroke:#dce0df;stroke-linejoin:round"
       transform="matrix(0.26458333,0,0,0.26458333,32.252965,120.38541)" /><polygon
       class="cls-1"
       points="275.5,0.5 225.5,0.5 200.5,43.8 250.5,43.8 "
       id="polygon8-6-0"
       style="fill:#ff9955;stroke:#dce0df;stroke-linejoin:round"
       transform="matrix(0.26458333,0,0,0.26458333,32.252965,120.38541)" /><polygon
       class="cls-2"
       points="150.5,217.01 175.5,260.31 125.5,260.31 100.5,217.01 "
       id="polygon11-3-8"
       style="fill:#803300;stroke:#dce0df;stroke-linejoin:round"
       transform="matrix(0.26458333,0,0,0.26458333,32.252965,120.38541)" /></g></svg>
